<?xml version="1.0" encoding="utf-8"?>
<!-- Generator: Adobe Illustrator 19.0.0, SVG Export Plug-In . SVG Version: 6.00 Build 0)  -->
<svg version="1.1" id="Layer_1" xmlns="http://www.w3.org/2000/svg" xmlns:xlink="http://www.w3.org/1999/xlink" x="0px" y="0px"
	 viewBox="0 0 841.9 595.3" style="enable-background:new 0 0 841.9 595.3;" xml:space="preserve">
<style type="text/css">
	.st0{fill:#CE2127;}
	.st1{fill:#20AAB5;}
	.st2{fill:#CC1F25;}
	.st3{fill:#D4FD5F;}
</style>
<g id="XMLID_1_">
	<g id="XMLID_258_">
		<path id="XMLID_284_" class="st0" d="M115.8,389.4h6h6.1v41.7c0,5.9-1.6,10.3-4.7,13.4c-3.2,3-7.8,4.5-14,4.5
			c-6.5,0-11.3-1.7-14.4-5c-3-3.3-4.5-8.4-4.3-15.3v-3.5H102v3.5c-0.1,3.5,0.4,6.1,1.6,7.8c1.1,1.7,3,2.5,5.5,2.5
			c2.4,0,4.1-0.6,5.1-1.9c1-1.2,1.6-3.3,1.6-6.1V389.4z"/>
		<path id="XMLID_281_" class="st0" d="M144.8,440.8c-5-5.4-7.5-12.8-7.5-22.1c0-9.5,2.5-17,7.5-22.5c5-5.6,11.8-8.3,20.3-8.3
			c8.6,0,15.4,2.8,20.4,8.3c5,5.6,7.5,13.1,7.5,22.5c0,9.3-2.5,16.6-7.5,22.1c-5,5.4-11.8,8.2-20.4,8.2
			C156.6,448.9,149.8,446.2,144.8,440.8z M176.7,433.3c2.8-3.5,4.2-8.4,4.2-14.7c0-6.4-1.4-11.4-4.2-15.1c-2.8-3.6-6.6-5.4-11.6-5.4
			c-4.9,0-8.8,1.8-11.6,5.4c-2.8,3.6-4.2,8.7-4.2,15.1c0,6.3,1.4,11.2,4.2,14.7s6.6,5.3,11.6,5.3C170,438.6,173.9,436.9,176.7,433.3
			z"/>
		<path id="XMLID_278_" class="st0" d="M202.7,389.4h6h23.2c5.5,0,10,1.5,13.4,4.4c3.4,3,5.1,6.9,5.1,11.7c0,5.6-1.9,9.6-5.6,12.2
			c-1,0.7-2.1,1.3-3.4,1.7c0.7,0.3,1.4,0.6,1.9,0.9c3.3,2,5,5.3,5.2,9.9l0.3,9.5c0.1,1.9,0.2,3.2,0.6,4c0.3,0.8,1,1.4,2,1.9v1.5
			h-13.4c-0.3-0.6-0.6-1.9-0.8-3.9c-0.2-2-0.4-4.1-0.4-6.4l-0.1-5.4c-0.1-2.6-0.8-4.5-2.3-5.6c-1.5-1.1-3.9-1.7-7.4-1.7h-12.1v22.9
			h-6h-6.1V389.4z M214.8,414.7h14c3.1,0,5.5-0.6,7-1.9c1.6-1.3,2.3-3.2,2.3-5.8c0-2.6-0.7-4.5-2.2-5.7c-1.5-1.3-3.7-1.9-6.7-1.9
			h-14.5V414.7z"/>
		<path id="XMLID_275_" class="st0" d="M261,389.4h6h18.8c8,0,14,2.3,18.2,7c4.1,4.7,6.2,11.5,6.2,20.5c0,9.9-2.1,17.5-6.4,22.7
			c-4.3,5.2-10.6,7.8-18.9,7.8H267h-6V389.4z M273.1,437.4h10.2c4.9,0,8.6-1.7,11.1-5c2.5-3.3,3.7-8.3,3.7-15c0-6-1.1-10.5-3.4-13.5
			s-5.7-4.5-10.3-4.5h-11.2V437.4z"/>
		<path id="XMLID_272_" class="st0" d="M335.3,389.4h7h7l20.5,58h-6.4H357l-3.9-11.8h-22l-3.8,11.8h-6.2h-6.3L335.3,389.4z
			 M334.5,425.6h15.4l-7.7-23.3h0L334.5,425.6z"/>
		<path id="XMLID_270_" class="st0" d="M388.4,447.4h-5.6h-5.7v-58h6.4h6.4l23.3,40.7v-40.7h5.6h5.7v58h-6h-6l-23.9-41.8V447.4z"/>
		<path id="XMLID_268_" class="st1" d="M469.2,447.4h-5.6h-5.7v-58h6.4h6.4l23.3,40.7v-40.7h5.6h5.7v58h-6h-6l-23.9-41.8V447.4z"/>
		<path id="XMLID_265_" class="st1" d="M532.7,389.4h7h7l20.5,58h-6.4h-6.4l-3.9-11.8h-22l-3.8,11.8h-6.2h-6.3L532.7,389.4z
			 M531.9,425.6h15.4l-7.7-23.3h0L531.9,425.6z"/>
		<path id="XMLID_263_" class="st1" d="M575.1,447.4v-58h42.7v5.1v5.2h-30.6V412h28.4v5v5h-28.4v15.1h31.9v5.1v5.2H575.1z"/>
		<path id="XMLID_261_" class="st1" d="M629,447.4v-58h42.7v5.1v5.2h-30.6V412h28.4v5v5h-28.4v15.1H673v5.1v5.2H629z"/>
		<path id="XMLID_259_" class="st1" d="M693.6,447.4h-5.6h-5.7v-58h8.9h8.9l10.6,45.9h0l10.4-45.9h8.8h8.8v58h-5.6h-5.7v-48.7h0
			l-10.9,48.7h-6h-6l-10.8-49.8h0V447.4z"/>
	</g>
</g>
<g id="XMLID_38_">
	<g id="XMLID_39_">
		<g id="XMLID_40_">
			<g id="XMLID_74_">
				<g id="XMLID_75_">
					<path id="XMLID_77_" class="st1" d="M450.5,192c-20.3,0-37.6,13-44.1,31.1l20.1,14.9c0.5-12.8,11.1-23.1,24-23.1
						c13.3,0,24.1,10.8,24.1,24.1v63.6h22.8v-63.6C497.4,213.1,476.3,192,450.5,192z"/>
				</g>
			</g>
		</g>
		<circle id="XMLID_44_" class="st0" cx="352.3" cy="284.1" r="20.3"/>
	</g>
	<path id="XMLID_50_" class="st2" d="M416.4,365.6c-62.5,0-113.4-50.9-113.4-113.4s50.9-113.4,113.4-113.4s113.4,50.9,113.4,113.4
		S478.9,365.6,416.4,365.6z M416.4,146.4c-58.3,0-105.8,47.5-105.8,105.8S358,358,416.4,358s105.8-47.5,105.8-105.8
		S474.7,146.4,416.4,146.4z"/>
	<g id="XMLID_53_">
		<polygon id="XMLID_56_" class="st1" points="426.4,187.8 403.5,187.8 403.5,221 426.4,237.9 		"/>
		<polygon id="XMLID_57_" class="st3" points="403.5,270.9 426.4,270.9 426.4,252.5 403.5,235.6 		"/>
	</g>
	<g id="XMLID_58_">
		<path id="XMLID_59_" class="st0" d="M403.5,238.9v42.1c0,13.3-10.8,24.1-24.1,24.1s-24.1-10.8-24.1-24.1h-22.8
			c0,25.9,21,46.9,46.9,46.9c25.9,0,46.9-21,46.9-46.9v-28.6l-18.3-13.5H403.5z"/>
	</g>
</g>
</svg>
